<svg id="Layer_1" data-name="Layer 1" xmlns="http://www.w3.org/2000/svg" viewBox="0 0 618.17 164.29"><defs><style>.cls-1{fill:#fff;}</style></defs><title>logo_rendez-vous-04</title><path class="cls-1" d="M225.54,122.72q-.12,1.62-.12,3.41v6.15a19.27,19.27,0,0,0,.17,3.78q.17.35,1.23.35h.81v.68q-1.91-.07-3.23-.08t-3.21.08v-.68h.91a1.54,1.54,0,0,0,.93-.19,1.12,1.12,0,0,0,.27-.74q.11-1.26.11-3.26v-6.16q0-1.82-.08-3.34h-1.1a16,16,0,0,0-2.93.12q-.27.12-.36,1l-.15,1.45h-.68l0-1.28q0-.78-.13-2.23l6.85.08,6-.08q-.21,1.82-.24,3.51h-.68l-.11-1.41a2,2,0,0,0-.18-.87.81.81,0,0,0-.53-.17q-1.19-.09-2.7-.09Z"/><path class="cls-1" d="M242.78,128.4a5.49,5.49,0,0,1,3.34,1.07,3.26,3.26,0,0,1,1,2.55,4.57,4.57,0,0,1-1.72,3.56,6.43,6.43,0,0,1-4.37,1.49l-.85,0q-1.08-.05-1.82-.05-.54,0-1.33,0l-.9,0v-.49a2.53,2.53,0,0,0,.79-.5,1.12,1.12,0,0,0,.15-.57q.07-1.28.08-2.92v-6.72a11.71,11.71,0,0,0-.19-3.05q-.24-.42-1.15-.42h-.73v-.68h.9l1,0,1.22,0q.68,0,2.68-.07l1.57,0a4.81,4.81,0,0,1,2.77.65,2.69,2.69,0,0,1,1.15,2.33,3.18,3.18,0,0,1-.81,2.16A6.13,6.13,0,0,1,242.78,128.4Zm-3.58-.31,1,0a4.87,4.87,0,0,0,3.07-.76,2.67,2.67,0,0,0,.93-2.19,2.36,2.36,0,0,0-.78-1.9,3.78,3.78,0,0,0-2.48-.66,10.59,10.59,0,0,0-1.64.14q-.1,1.32-.1,4Zm0,7.9a11.58,11.58,0,0,0,1.66.15,4.08,4.08,0,0,0,3-1,4.19,4.19,0,0,0,.59-4.69,2.71,2.71,0,0,0-1.3-1.11,7.42,7.42,0,0,0-2.67-.35q-.55,0-1.24,0v5.19q0,.73,0,1.12A6.12,6.12,0,0,1,239.2,136Z"/><path class="cls-1" d="M251.78,129.4a7.5,7.5,0,0,1,2.29-5.71,8.5,8.5,0,0,1,6.09-2.17,8.16,8.16,0,0,1,5.85,2,7,7,0,0,1,2.12,5.34,8.07,8.07,0,0,1-2.46,6,8.49,8.49,0,0,1-6.2,2.42,8.13,8.13,0,0,1-4-.95,6.77,6.77,0,0,1-2.68-2.77A8.65,8.65,0,0,1,251.78,129.4Zm2.19-.88a10,10,0,0,0,.84,4.24,6.2,6.2,0,0,0,2.24,2.71,5.81,5.81,0,0,0,3.21.9,5.49,5.49,0,0,0,2.92-.77,5.18,5.18,0,0,0,2-2.29,8.61,8.61,0,0,0,.72-3.7,8.84,8.84,0,0,0-.79-3.91,5.61,5.61,0,0,0-2.17-2.44,6.29,6.29,0,0,0-3.27-.82,5.86,5.86,0,0,0-3,.72,5,5,0,0,0-2,2.12A7,7,0,0,0,254,128.52Z"/><path class="cls-1" d="M276.75,122.91q-.08,1.55-.08,3.31v6.16a16.28,16.28,0,0,0,.19,3.63q.19.39,1.27.39h.74v.68q-1.91-.07-3-.08t-3.44.08v-.68h1a1.49,1.49,0,0,0,.87-.17,1,1,0,0,0,.25-.68q.05-.51.12-3.13v-5.76l0-2.23a3.21,3.21,0,0,0-.3-1.7c-.18-.21-.63-.31-1.34-.31h-.54v-.68q1.35.05,3.42.05,1.22,0,2.71-.06l1.49,0a6.08,6.08,0,0,1,3.79.95A3.12,3.12,0,0,1,285,125.2a4.19,4.19,0,0,1-.68,2.26,4.93,4.93,0,0,1-1.92,1.74,5.61,5.61,0,0,1-2.66.66,8.09,8.09,0,0,1-1.62-.21l-.22-.81a6.77,6.77,0,0,0,1.58.24,3.14,3.14,0,0,0,2.36-.9,3.39,3.39,0,0,0,.87-2.46,3,3,0,0,0-.93-2.36,4,4,0,0,0-2.78-.85A7.51,7.51,0,0,0,276.75,122.91Z"/><path class="cls-1" d="M300.65,130.41a14.46,14.46,0,0,1-4.19.8,7.28,7.28,0,0,1-2.56-.44,5,5,0,0,1-2-1.42,4.77,4.77,0,0,1-.87-3.2q0-2.51-.08-3.12t-1.29-.61h-.8v-.68q1.67.07,3.06.08,1.91,0,3.26-.08v.68h-.46q-1.1,0-1.35.26a2.54,2.54,0,0,0-.25,1.46,24.11,24.11,0,0,0,.18,3.73,2.56,2.56,0,0,0,1.18,1.57,4.33,4.33,0,0,0,2.5.68,15.42,15.42,0,0,0,3.72-.6,54.26,54.26,0,0,0-.18-6.6q-.18-.5-1.26-.5h-.78v-.68q1.41.07,3.28.08,1.51,0,3.17-.08v.68h-.83q-1.19,0-1.28.49a31.47,31.47,0,0,0-.1,3.46v6a20.72,20.72,0,0,0,.16,3.63q.16.45,1.22.45h.83v.68q-1.33-.07-3.12-.08-2.14,0-3.57.08v-.68h.74a2.21,2.21,0,0,0,1.06-.2,1,1,0,0,0,.45-.43,7.48,7.48,0,0,0,.15-1.61q0-1.38,0-1.9Z"/><path class="cls-1" d="M313.54,129.75v4.17q0,1.43,0,2.08,1.58.12,3.38.12a15.9,15.9,0,0,0,2-.11,5.07,5.07,0,0,0,1.12-.28q.27-.95.55-2.37h.71q-.29,2.37-.29,3.16l0,.49q-1.24.11-2.44.11l-1.69,0q-2.8-.07-4.12-.08t-3.35.08v-.68h.33a2.33,2.33,0,0,0,1.18-.18,1.28,1.28,0,0,0,.32-.86q.08-.68.08-3v-5.92q0-1.46-.07-2.38a5,5,0,0,0-.15-1.1.62.62,0,0,0-.23-.28,3,3,0,0,0-.93-.17l-.83-.09v-.68h1.16l1.14,0,1.46,0,4.14-.06h2q1,0,2,.08a12,12,0,0,0-.45,3.33h-.73a13.59,13.59,0,0,0-.12-2,9,9,0,0,0-3.13-.47q-1.48,0-3.09.13,0,1,0,2l0,1.66v2.18q1.07.08,1.89.08a11.56,11.56,0,0,0,2.91-.18q.34-.18.34-1.1v-.7h.73q-.08,1.63-.08,2.6t.08,2.42h-.73v-.63q0-1-.4-1.27a9.11,9.11,0,0,0-2.85-.23Q314.51,129.67,313.54,129.75Z"/><path class="cls-1" d="M339.31,125.63l-.09-1.92a7.51,7.51,0,0,0-2-.95,7.68,7.68,0,0,0-2.19-.31,6.27,6.27,0,0,0-4.66,1.77,6.43,6.43,0,0,0-1.75,4.73,7.61,7.61,0,0,0,.89,3.71,6.57,6.57,0,0,0,2.53,2.58,6.8,6.8,0,0,0,3.46.95,12.38,12.38,0,0,0,2.86-.33,5.86,5.86,0,0,0,2.12-1l.23.22c-.15.33-.29.67-.42,1a12.51,12.51,0,0,1-2.54.94,10.61,10.61,0,0,1-2.57.32,10.13,10.13,0,0,1-4.66-1,7.42,7.42,0,0,1-3.09-2.83,7.8,7.8,0,0,1-1.08-4.08,7.7,7.7,0,0,1,1.09-4.07,7.3,7.3,0,0,1,3.08-2.78,10.94,10.94,0,0,1,4.89-1,15.31,15.31,0,0,1,3.56.5q1,.24,1.65.36a9.57,9.57,0,0,0-.56,3.26Z"/><path class="cls-1" d="M351.2,128.58l7.35,6.85.67.64a1,1,0,0,0,.42.27,2.63,2.63,0,0,0,.7.06v.68q-.88-.07-1.55-.08t-1.53.08L349.82,130q-.38-.36-.46-.36c-.15,0-.23.14-.23.42v3.29a16.22,16.22,0,0,0,.1,2.63q.16.39,1.17.39h.81v.68q-1.76-.07-3.12-.08t-3.07.08v-.68h.87q.86,0,1-.32a10.65,10.65,0,0,0,.17-2.74v-7.21a15.54,15.54,0,0,0-.17-3.34q-.17-.37-1-.37H345v-.68q2,.07,2.86.08l3.33-.08v.68l-.86,0a1.75,1.75,0,0,0-.93.2,1,1,0,0,0-.24.66q0,.5,0,2.86v2.91h.15q.88-.72,1.52-1.32t2.09-2.1l3.06-3.17v-.75q1.19.07,2,.08t1.79-.08v.68h-.58a2.69,2.69,0,0,0-1.32.3,20,20,0,0,0-2.49,2.09Z"/><path class="cls-1" d="M364.25,129.4a7.5,7.5,0,0,1,2.29-5.71,8.5,8.5,0,0,1,6.09-2.17,8.16,8.16,0,0,1,5.85,2,7,7,0,0,1,2.12,5.34,8.07,8.07,0,0,1-2.46,6,8.49,8.49,0,0,1-6.2,2.42,8.13,8.13,0,0,1-4-.95,6.77,6.77,0,0,1-2.68-2.77A8.65,8.65,0,0,1,364.25,129.4Zm2.19-.88a10,10,0,0,0,.84,4.24,6.2,6.2,0,0,0,2.24,2.71,5.81,5.81,0,0,0,3.21.9,5.49,5.49,0,0,0,2.92-.77,5.18,5.18,0,0,0,2-2.29,8.61,8.61,0,0,0,.72-3.7,8.84,8.84,0,0,0-.79-3.91,5.61,5.61,0,0,0-2.17-2.44,6.29,6.29,0,0,0-3.27-.82,5.86,5.86,0,0,0-3,.72,5,5,0,0,0-2,2.12A7,7,0,0,0,366.43,128.52Z"/><path class="cls-1" d="M389.31,129.75v4.17q0,1.43,0,2.08,1.58.12,3.38.12a15.9,15.9,0,0,0,2-.11,5.07,5.07,0,0,0,1.12-.28q.27-.95.55-2.37h.71q-.29,2.37-.29,3.16l0,.49q-1.24.11-2.44.11l-1.69,0q-2.8-.07-4.12-.08t-3.35.08v-.68h.33a2.33,2.33,0,0,0,1.18-.18,1.28,1.28,0,0,0,.32-.86q.08-.68.08-3v-5.92q0-1.46-.07-2.38A5,5,0,0,0,387,123a.62.62,0,0,0-.23-.28,3,3,0,0,0-.93-.17l-.83-.09v-.68h1.16l1.14,0,1.46,0,4.14-.06h2q1,0,2,.08a12,12,0,0,0-.45,3.33h-.73a13.59,13.59,0,0,0-.12-2,9,9,0,0,0-3.13-.47q-1.48,0-3.09.13,0,1,0,2l0,1.66v2.18q1.07.08,1.89.08a11.56,11.56,0,0,0,2.91-.18q.34-.18.34-1.1v-.7h.73q-.08,1.63-.08,2.6t.08,2.42h-.73v-.63q0-1-.4-1.27a9.11,9.11,0,0,0-2.85-.23Q390.28,129.67,389.31,129.75Z"/><path class="cls-1" d="M207.22,162.9H208q1,0,1.25-.44a15.52,15.52,0,0,0,.22-3.7v-5.92q0-.55-.14-3.56-1-.09-3.46-.09-3.62,0-4.84.09-.09,1.6-.09,3.2V159q0,.78.05,1.82L201,162c0,.41.14.66.39.76a2.37,2.37,0,0,0,.85.15H203v.68q-1.29-.07-2.72-.08t-3.6.08v-.68h.67q1.19,0,1.36-.44a16.9,16.9,0,0,0,.18-3.47v-6.49a13.43,13.43,0,0,0-.19-3.14q-.19-.44-1.22-.44h-.8v-.68q6.88.07,9,.08l8-.08v.68h-.83q-1.19,0-1.28.49a31.14,31.14,0,0,0-.1,3.45v6a21.44,21.44,0,0,0,.15,3.62q.15.45,1.23.45h.83v.68q-1.33-.07-3.12-.08t-3.33.08Z"/><path class="cls-1" d="M222.26,149.41q-.08,1.55-.08,3.31v6.16a16.28,16.28,0,0,0,.19,3.63q.19.39,1.27.39h.74v.68q-1.91-.07-3-.08t-3.44.08v-.68h1a1.49,1.49,0,0,0,.87-.17A1,1,0,0,0,220,162q.05-.51.12-3.13v-5.76l0-2.23a3.21,3.21,0,0,0-.3-1.7c-.18-.21-.63-.31-1.34-.31h-.54v-.68q1.35.05,3.42.05,1.22,0,2.71-.06l1.49,0a6.08,6.08,0,0,1,3.79.95,3.12,3.12,0,0,1,1.17,2.57,4.19,4.19,0,0,1-.68,2.26,4.93,4.93,0,0,1-1.92,1.74,5.61,5.61,0,0,1-2.66.66,8.09,8.09,0,0,1-1.62-.21l-.22-.81a6.77,6.77,0,0,0,1.58.24,3.14,3.14,0,0,0,2.36-.9,3.39,3.39,0,0,0,.87-2.46,3,3,0,0,0-.93-2.36,4,4,0,0,0-2.78-.85A7.51,7.51,0,0,0,222.26,149.41Z"/><path class="cls-1" d="M234.61,155.9a7.5,7.5,0,0,1,2.29-5.71A8.5,8.5,0,0,1,243,148a8.16,8.16,0,0,1,5.85,2,7,7,0,0,1,2.12,5.34,8.07,8.07,0,0,1-2.46,6,8.49,8.49,0,0,1-6.2,2.42,8.13,8.13,0,0,1-4-.95,6.77,6.77,0,0,1-2.68-2.77A8.65,8.65,0,0,1,234.61,155.9Zm2.19-.88a10,10,0,0,0,.84,4.24,6.2,6.2,0,0,0,2.24,2.71,5.81,5.81,0,0,0,3.21.9,5.49,5.49,0,0,0,2.92-.77,5.18,5.18,0,0,0,2-2.29,8.61,8.61,0,0,0,.72-3.7,8.84,8.84,0,0,0-.79-3.91,5.61,5.61,0,0,0-2.17-2.44,6.29,6.29,0,0,0-3.27-.82,5.86,5.86,0,0,0-3,.72,5,5,0,0,0-2,2.12A7,7,0,0,0,236.79,155Z"/><path class="cls-1" d="M268.64,152.12l-.09-1.92a7.51,7.51,0,0,0-2-.95,7.68,7.68,0,0,0-2.19-.31,6.27,6.27,0,0,0-4.66,1.77,6.43,6.43,0,0,0-1.75,4.73,7.61,7.61,0,0,0,.89,3.71,6.57,6.57,0,0,0,2.53,2.58,6.8,6.8,0,0,0,3.46.95,12.38,12.38,0,0,0,2.86-.33,5.86,5.86,0,0,0,2.12-1l.23.22c-.15.33-.29.67-.42,1a12.51,12.51,0,0,1-2.54.94,10.61,10.61,0,0,1-2.57.32,10.13,10.13,0,0,1-4.66-1,7.42,7.42,0,0,1-3.09-2.83,7.8,7.8,0,0,1-1.08-4.08,7.7,7.7,0,0,1,1.09-4.07,7.3,7.3,0,0,1,3.08-2.78,10.94,10.94,0,0,1,4.89-1,15.31,15.31,0,0,1,3.56.5q1,.24,1.65.36a9.57,9.57,0,0,0-.56,3.26Z"/><path class="cls-1" d="M281.65,149.21q-.12,1.62-.12,3.41v6.15a19.27,19.27,0,0,0,.17,3.78q.17.35,1.23.35h.81v.68q-1.91-.07-3.23-.08t-3.21.08v-.68h.91a1.54,1.54,0,0,0,.93-.19,1.12,1.12,0,0,0,.27-.74q.11-1.26.11-3.26v-6.16q0-1.82-.08-3.34h-1.1a16,16,0,0,0-2.93.12q-.27.12-.36,1l-.15,1.45h-.68l0-1.28q0-.78-.13-2.23l6.85.08,6-.08q-.21,1.82-.24,3.51H286l-.11-1.41a2,2,0,0,0-.18-.87.81.81,0,0,0-.53-.17q-1.19-.09-2.7-.09Z"/><path class="cls-1" d="M295.38,149.41q-.08,1.55-.08,3.31v6.16a16.28,16.28,0,0,0,.19,3.63q.19.39,1.27.39h.74v.68q-1.91-.07-3-.08t-3.44.08v-.68h1a1.49,1.49,0,0,0,.87-.17,1,1,0,0,0,.25-.68q.05-.51.12-3.13v-5.76l0-2.23a3.21,3.21,0,0,0-.3-1.7c-.18-.21-.63-.31-1.34-.31h-.54v-.68q1.35.05,3.42.05,1.22,0,2.71-.06l1.49,0a6.08,6.08,0,0,1,3.79.95,3.12,3.12,0,0,1,1.17,2.57A4.19,4.19,0,0,1,303,154a4.93,4.93,0,0,1-1.92,1.74,5.61,5.61,0,0,1-2.66.66,8.09,8.09,0,0,1-1.62-.21l-.22-.81a6.77,6.77,0,0,0,1.58.24,3.14,3.14,0,0,0,2.36-.9,3.39,3.39,0,0,0,.87-2.46,3,3,0,0,0-.93-2.36,4,4,0,0,0-2.78-.85A7.51,7.51,0,0,0,295.38,149.41Z"/><path class="cls-1" d="M318.55,158.4h-6.24l-.73,1.74a8.86,8.86,0,0,0-.72,2.11.43.43,0,0,0,.13.36,1.64,1.64,0,0,0,.68.17l1,.12v.68q-1-.07-2.33-.08-1.55,0-2.73.08v-.68H308a2.36,2.36,0,0,0,1-.16,1.57,1.57,0,0,0,.47-.66q.77-1.55,1.56-3.35l3-6.72q1.19-2.67,1.62-3.88h.73l5.46,12.69a12.5,12.5,0,0,0,.73,1.56,1.09,1.09,0,0,0,.42.38,3.53,3.53,0,0,0,1.07.16v.68q-1.4-.07-2.67-.08t-3.16.08v-.68l1.07-.06a1.92,1.92,0,0,0,.68-.12.36.36,0,0,0,.16-.3,4.3,4.3,0,0,0-.32-1Zm-5.83-.88h5.43L315.43,151Z"/><path class="cls-1" d="M332.44,156v3q0,.78.05,1.83.06,1.47.11,1.63a.63.63,0,0,0,.31.32,1.76,1.76,0,0,0,.87.16h.73v.68q-1.4-.07-2.71-.08t-3.61.08v-.68h.67q1.13,0,1.34-.38a14.45,14.45,0,0,0,.21-3.51v-6.5a12.08,12.08,0,0,0-.21-3.21q-.21-.38-1.2-.38h-.8v-.68q1.78.07,3.31.08t3-.08v.68h-.46a2.79,2.79,0,0,0-1.24.16.73.73,0,0,0-.29.53,27.7,27.7,0,0,0-.09,2.88v2.46q1.92.08,4.88.08,2.51,0,4.09-.08v-2.11q0-1.85-.13-3.1a.88.88,0,0,0-.29-.64,1.8,1.8,0,0,0-1-.19h-.78v-.68q1.65.07,3.13.08t3.32-.08v.68h-.82a2,2,0,0,0-1.06.18.94.94,0,0,0-.28.67q0,.49,0,3.09v6a17.14,17.14,0,0,0,.19,3.69q.19.38,1.18.38h.84v.68q-1.49-.07-3.07-.08-1.81,0-3.37.08v-.68h.74a1.91,1.91,0,0,0,1.06-.19,1,1,0,0,0,.29-.71q.12-1.11.12-3.24V156q-1.52-.07-3.88-.08Q334.17,155.88,332.44,156Z"/><path class="cls-1" d="M363.27,152.12l-.09-1.92a7.51,7.51,0,0,0-2-.95,7.68,7.68,0,0,0-2.19-.31,6.27,6.27,0,0,0-4.66,1.77,6.43,6.43,0,0,0-1.75,4.73,7.61,7.61,0,0,0,.89,3.71,6.57,6.57,0,0,0,2.53,2.58,6.8,6.8,0,0,0,3.46.95,12.38,12.38,0,0,0,2.86-.33,5.86,5.86,0,0,0,2.12-1l.23.22c-.15.33-.29.67-.42,1a12.51,12.51,0,0,1-2.54.94,10.61,10.61,0,0,1-2.57.32,10.13,10.13,0,0,1-4.66-1,7.42,7.42,0,0,1-3.09-2.83,7.8,7.8,0,0,1-1.08-4.08,7.7,7.7,0,0,1,1.09-4.07,7.3,7.3,0,0,1,3.08-2.78,10.94,10.94,0,0,1,4.89-1,15.31,15.31,0,0,1,3.56.5q1,.24,1.65.36a9.57,9.57,0,0,0-.56,3.26Z"/><path class="cls-1" d="M376.27,149.21q-.12,1.62-.12,3.41v6.15a19.27,19.27,0,0,0,.17,3.78q.17.35,1.23.35h.81v.68q-1.91-.07-3.23-.08t-3.21.08v-.68h.91a1.54,1.54,0,0,0,.93-.19A1.12,1.12,0,0,0,374,162q.11-1.26.11-3.26v-6.16q0-1.82-.08-3.34H373a16,16,0,0,0-2.93.12q-.27.12-.36,1l-.15,1.45h-.68l0-1.28q0-.78-.13-2.23l6.85.08,6-.08q-.21,1.82-.24,3.51h-.68l-.11-1.41a2,2,0,0,0-.18-.87.81.81,0,0,0-.53-.17q-1.19-.09-2.7-.09Z"/><path class="cls-1" d="M393.51,154.9a5.49,5.49,0,0,1,3.34,1.07,3.26,3.26,0,0,1,1,2.55,4.57,4.57,0,0,1-1.72,3.56,6.43,6.43,0,0,1-4.37,1.49l-.85,0q-1.08-.05-1.82-.05-.54,0-1.33,0l-.9,0v-.49a2.53,2.53,0,0,0,.79-.5,1.12,1.12,0,0,0,.15-.57q.07-1.28.08-2.92v-6.72a11.71,11.71,0,0,0-.19-3.05q-.24-.42-1.15-.42h-.73v-.68h.9l1,0,1.22,0q.68,0,2.68-.07l1.57,0a4.81,4.81,0,0,1,2.77.65,2.69,2.69,0,0,1,1.15,2.33,3.18,3.18,0,0,1-.81,2.16A6.13,6.13,0,0,1,393.51,154.9Zm-3.58-.31,1,0a4.87,4.87,0,0,0,3.07-.76,2.67,2.67,0,0,0,.93-2.19,2.36,2.36,0,0,0-.78-1.9,3.78,3.78,0,0,0-2.48-.66,10.59,10.59,0,0,0-1.64.14q-.1,1.32-.1,4Zm0,7.9a11.58,11.58,0,0,0,1.66.15,4.08,4.08,0,0,0,3-1,4.19,4.19,0,0,0,.59-4.69,2.71,2.71,0,0,0-1.3-1.11,7.42,7.42,0,0,0-2.67-.35q-.55,0-1.24,0v5.19q0,.73,0,1.12A6.12,6.12,0,0,1,389.93,162.5Z"/><path class="cls-1" d="M402.51,155.9a7.5,7.5,0,0,1,2.29-5.71,8.5,8.5,0,0,1,6.09-2.17,8.16,8.16,0,0,1,5.85,2,7,7,0,0,1,2.12,5.34,8.07,8.07,0,0,1-2.46,6,8.49,8.49,0,0,1-6.2,2.42,8.13,8.13,0,0,1-4-.95,6.77,6.77,0,0,1-2.68-2.77A8.65,8.65,0,0,1,402.51,155.9Zm2.19-.88a10,10,0,0,0,.84,4.24,6.2,6.2,0,0,0,2.24,2.71,5.81,5.81,0,0,0,3.21.9,5.49,5.49,0,0,0,2.92-.77,5.18,5.18,0,0,0,2-2.29,8.61,8.61,0,0,0,.72-3.7,8.84,8.84,0,0,0-.79-3.91,5.61,5.61,0,0,0-2.17-2.44,6.29,6.29,0,0,0-3.27-.82,5.86,5.86,0,0,0-3,.72,5,5,0,0,0-2,2.12A7,7,0,0,0,404.7,155Z"/><circle class="cls-1" cx="166.3" cy="139.89" r="8.52"/><circle class="cls-1" cx="445.35" cy="139.89" r="8.52"/><path class="cls-1" d="M74.92,63.23c-4.47.68-12.6.87-12.62.91C62,64.62,68.09,76,74.16,88.5a45.07,45.07,0,0,0,7.57,10.83c4.21,4.52,8,6.58,11,6.14,3.65-.52,6.5-4.84,7.62-12.25.26-1.7.54-2.7,1-2.77s.9.38,1.25,1.34a11.74,11.74,0,0,1,.6,2c.29,2.15-.65,5.09-2.53,8.76-2.61,5.06-5.73,8-9.54,8.58s-7.59-.81-11.38-4.1-8-9.67-12.72-19.16S59.76,72.24,59.32,69.5a6,6,0,0,1,0-1c-.22-.08-14.41,25.67-18.18,30.82-8.38,11.45-17.7,18.19-28.13,20.27C5.64,121,1.42,119.05.29,113.62A19.7,19.7,0,0,1,1,104.09a34.71,34.71,0,0,1,4.68-9.92c2-3,4.05-4.66,6-5,.35-.07.54,0,.58.15.08.43-.81,1.71-2.67,3.84a29,29,0,0,0-4.86,8.47q-2.07,5.27-1.28,9.09c.92,4.51,5.33,6.61,10.59,4.91,18.36-5.93,31.16-30.42,41-48.7a16.59,16.59,0,0,1,2.44-3.57l-2.27-.42A8.78,8.78,0,0,1,52.51,64q-2.81.47-3.18-1.71c-.33-2,.88-3.47,3.52-4.55a4.44,4.44,0,0,1,.92-.28c1.62-.27,5.26,1.59,6,1.39,3.85-1,10-14.57,10.14-14.77,5.63-7.35,9.66-11.31,12-11.65s3.62.45,3.89,2.34a5.24,5.24,0,0,1-.27,2.54,2.05,2.05,0,0,1-1.27,1.36c-.47.14-.83,0-.93-.66,0-.34.45-1.06.6-1.66a1.38,1.38,0,0,0-1.49-1.63c-2.91.42-17.69,25-17.69,25,.18.27,5-.51,6.76-.79,20.79-3.19,33.25-10,37.06-21a14.2,14.2,0,0,0,.85-6.41c-.48-3.79-2.74-6.82-6.74-9.11-6.44-3.68-16.34-4.68-29.57-2.72S46.86,27.07,34.31,35.7C19.07,46.19,12.64,56.74,14.59,67c.64,3.32,3.13,4.56,7.5,3.75s8.71-3.2,13.08-7.15S42.36,56,43.55,52.73c.44-1.22,1-1.88,1.54-2s.79.23.65.95c-1,5-4,9.81-9.25,14.22a37.39,37.39,0,0,1-17.31,8.4c-6.31,1.19-9.83-.1-10.58-3.93,0-.25-.13-.57-.18-.89C7,58.82,12.92,47.15,24.74,36.94S52,20.06,70.92,17.23c17.58-2.63,30.51-1.4,38.53,3.37,4.83,2.87,7.52,6.68,8.08,11.33a16.4,16.4,0,0,1-.71,6.64c-2,6.6-7.19,12-15.4,16.21A85.87,85.87,0,0,1,74.92,63.23Z"/><path class="cls-1" d="M110.7,95.38a9.21,9.21,0,0,1-2.67,0c-5.65-.92-9-3.5-9.68-8.15-.83-6,2.07-13.53,8.88-22.47S120.7,50.95,127,50.21a7.7,7.7,0,0,1,5.25,1,5,5,0,0,1,2.4,3.72c.54,4.83-2.74,9.85-9.72,15.14S112.16,78.38,107.48,79c-.71.09-1.73-.1-1.89,0-.87.48-1.35,5-1,7.62.6,4.47,3.07,6.41,7.4,5.85s9.58-4.33,15.87-10.76a92.53,92.53,0,0,0,12.29-15c.69-1.1,1.32-1.71,1.9-1.78s.9.16,1,.68a4.25,4.25,0,0,1-.83,2.32,83.26,83.26,0,0,1-15.4,18.26C120.66,91.69,115.33,94.77,110.7,95.38ZM131.25,55.1c-.12-1-1.32-1.42-3.61-1.16s-5.35,2.34-9.14,6.21c-5.07,5.17-11.62,15.1-11.3,15.74a5,5,0,0,0,1.76,0c3.36-.44,7.63-2.76,12.85-6.93s8.24-8.55,9.3-12.69A3.45,3.45,0,0,0,131.25,55.1Z"/><path class="cls-1" d="M154.7,47.24q3.65-.36,3.91,2.36a3,3,0,0,1-.26,1.59c-5.59,11.12-12,25.94-12,25.94.87.4,31.07-33,35.13-33.74.41-.07.85-.2,1.21-.23,2.53-.2,3.88.78,4,2.95a3.36,3.36,0,0,1-.17,1.32,64.07,64.07,0,0,1-4.84,7.44,133.8,133.8,0,0,0-8.88,13.81c-2.35,4.39-3.38,8-3.13,10.73s1,4.09,2.22,4c3.87-.35,10.06-6.66,19-17.37.15-.19.44-.64.85-1.24,1.11-1.64,2-2.5,2.23-2.52s.43.4.5,1.27-.48,2-1.62,3.51c-10.09,13-17.26,19.8-21.83,20.21-4.3.39-6.67-1.74-7.11-6.4s.81-10.19,3.83-16.56c2.93-5.7,4.41-8.55,7.41-14.24a97.13,97.13,0,0,0-15,15.67Q154,74.11,149,82c-3.33,5.24-5.27,7.89-5.89,8a3.59,3.59,0,0,1-3.27-1.28,6.94,6.94,0,0,1-1.57-3.89,17.46,17.46,0,0,1,1-6.59Q140.53,74,142.59,68c-2.85,3.61-4.27,5.41-7.08,9q-2.59,3.18-3.32,3.26c-.48.06-.76-.19-.83-.76a2.86,2.86,0,0,1,.84-2,112.41,112.41,0,0,0,7.49-10.14c2-3.14,6.58-9.4,12.61-18.33A3.53,3.53,0,0,1,154.7,47.24Z"/><path class="cls-1" d="M232.12,43.27c1.68.16,16.28-24.41,20.32-24.55a9,9,0,0,1,2.7.5q1.74.53,1.77,1.7a3.06,3.06,0,0,1-.63,1.71c-6,8.58-12.18,15.33-15.52,19.73C230.65,55.69,225.49,65.43,224.65,71a18.26,18.26,0,0,0-.2,3.66q.32,5.85,5.21,5.59c6.52-.33,14.65-7.45,24.92-18.91a4.89,4.89,0,0,1,2.23-1.57c.62-.15.94,0,1,.43A2.63,2.63,0,0,1,257,61.8C247,74,238.22,81.25,230.47,83.1a10.71,10.71,0,0,1-1.84.22,7.16,7.16,0,0,1-6.29-2.46,10.06,10.06,0,0,1-2.39-5.93,25.72,25.72,0,0,1,1-8.14c-4.09,4.45-6.11,6.69-10.14,11.17-4.58,4.73-8.22,7.2-11,7.39a11.16,11.16,0,0,1-7.09-1.7A8.31,8.31,0,0,1,188.9,77c-.49-6.31,3.42-14.23,12-23.65s16.79-14.32,24.49-14.72c2.53-.13,4.33.48,5.39,1.68A22,22,0,0,1,232.12,43.27ZM194.59,78.16q.35,4.67,3.65,4.43c3.78-.27,9.68-5.87,18-16.57,1.48-1.91,15-15.22,15-21.28,0-.53-1.79-1.48-3.33-1.4-5.6.28-12.76,4.78-21.27,13.55S194.19,72.79,194.59,78.16Z"/><path class="cls-1" d="M259,83.36a9.18,9.18,0,0,1-2.65-.31c-5.52-1.47-8.63-4.38-8.81-9.06-.24-6.07,3.38-13.26,11-21.49S273.32,40.13,279.65,40a7.69,7.69,0,0,1,5.11,1.55,5,5,0,0,1,2,3.94c.06,4.86-3.68,9.54-11.14,14.11s-13.49,7-18.21,7.12c-.71,0-1.71-.27-1.87-.2-.91.39-1.83,4.88-1.74,7.48.16,4.51,2.42,6.68,6.78,6.55s9.94-3.37,16.82-9.14A92.53,92.53,0,0,0,291.1,57.69c.8-1,1.48-1.58,2.06-1.58s.88.25.88.77A4.26,4.26,0,0,1,293,59.1,83.19,83.19,0,0,1,275.9,75.76C269.28,80.67,263.69,83.21,259,83.36ZM283.4,45.29c0-1-1.17-1.55-3.47-1.51s-5.55,1.8-9.7,5.28c-5.55,4.65-13,13.88-12.76,14.55a5,5,0,0,0,1.75.2c3.39-.11,7.85-2,13.45-5.63s9-7.7,10.49-11.72A3.45,3.45,0,0,0,283.4,45.29Z"/><path class="cls-1" d="M295,75.62c-1.79,0-6,3.7-7.51,3.72-2,0-3.06-1-3.09-3.21a7,7,0,0,1,.76-2.87q.77-1.7,1.57-1.71c.8,0,.88.7.56,1.95s.16,2,1.22,1.94a7.25,7.25,0,0,0,3.83-1.6l-5.09-3.72a1.24,1.24,0,0,1-.28-.91q0-.65,1.31-1.9A3.73,3.73,0,0,1,290.32,66c.49,0,5.2,4.49,6.5,4.37,5.23-.5,24.44-23.91,24.44-23.91-.12-.75-12.38-3.19-15.81-3.19a19.54,19.54,0,0,0-2.84.2,5.85,5.85,0,0,0-2.9,1.57,4,4,0,0,0-1.54,3.07,3.36,3.36,0,0,0,1.5,2.79c1,.73,1.49,1.32,1.49,1.75s-.33.65-1,.65-1.82-.86-3.31-2.58a8.22,8.22,0,0,1-2.2-5.32c0-3,2.32-5.13,6.88-6a38.84,38.84,0,0,1,7.47-.66c2.53,0,12.46,5.35,18.68,4.82.87-.07,2.63-1,4.08-1,3.79.06,5.67,1.19,5.63,3.36,0,.87-.62,1.66-1.8,2.37a7.71,7.71,0,0,1-4.2,1c-1.62,0-3.67-1-4.44-1-5.34.24-17.82,13-27.42,24.1l4.79,3.63a24.37,24.37,0,0,0,13.23,3.68c5,0,8.73-.7,11.14-2.22s3.63-3.5,3.68-5.93a7.76,7.76,0,0,0-.61-3.2q-.64-1.51,1.22-1.48.67,0,1.31,1.52a8.77,8.77,0,0,1,.6,3.59c-.06,3.47-1.8,6.3-5.18,8.51s-7.7,3.28-13,3.24a30.42,30.42,0,0,1-14.38-3.28C300.84,79.74,296.62,75.64,295,75.62Z"/><path class="cls-1" d="M352,47.73c5.24.21,7.86.32,13.09.57s10.06-.39,11.22.07c.06,0,.12.22.12.4-.06,1.3-3.78,2.53-10.81,3.33-3.8.43-7.51.79-10.89,1.25a55.26,55.26,0,0,1-6.48.66,31.64,31.64,0,0,1-4.69-.71c-2.19-.44-3.27-1.31-3.24-2.61a2.74,2.74,0,0,1,1.2-2.19,3.41,3.41,0,0,1,2-.87,10.06,10.06,0,0,0,1.62-.09l3.51.09Z"/><path class="cls-1" d="M417.33,47.63q1.89.14,1.58,4.42c-.31,4.33-2.83,8.21-7.5,11.67a23.3,23.3,0,0,1-25.9,1.51c-7-4.12-10.35-11-9.94-20.41a37.45,37.45,0,0,1,6.63-19.37c5.68-8.49,13.75-15,24.11-19.52s20.39-6.32,30-5.54c7,.57,12.55,2.51,16.73,5.76q7,5.49,6.11,15c-.78,8-6.16,20.2-15.74,36.64s-14.27,25.85-14.45,28.1c-.06.69.16.93.61.7,2.38-1.21,13.68-12.25,35-32.27s36.75-31.8,45-36A158.48,158.48,0,0,1,528,9.92,30.12,30.12,0,0,1,542.57,8.4c1.3.19,2.27.41,2.9.56,2.38.6,3.54,1.94,3.2,4.17q-.26,1.68-1.5,1.48-.14,0-1.85-.87a9.59,9.59,0,0,0-3-1c-19.83-2.2-41.18,13.59-56.06,25.8a432.68,432.68,0,0,0-32.67,30c-12.67,12.82-19.85,19.81-22,20.77-7.43,3.38-11.55,5.09-12.42,5q-.39,0-.3-1.33c.21-2.85,3.12-10.15,9.08-21.23,2.32-4.31,5.92-10.84,10.64-19.5,3.08-6.79,4.63-10.18,7.76-17,2.71-5.68,4.2-9.86,4.45-12.54q.82-8.94-4.29-14.11c-3.42-3.44-8.62-5.46-15.58-6S416.3,3.88,408.19,8a50,50,0,0,0-20.26,18.12c-4.6,7.41-7,13.77-7.23,19.06s.67,9.51,2.76,12.65A17.46,17.46,0,0,0,397.64,66a18.84,18.84,0,0,0,12.58-3.7,14.28,14.28,0,0,0,6.16-11,9.38,9.38,0,0,0-.15-2.62C416.06,47.93,416.42,47.56,417.33,47.63Z"/><path class="cls-1" d="M505.22,66.15c-.39,3-4.05,7.65-10.83,14-8,7.48-14.39,11-19.3,10.44l-2.1-.23c-2.28-.25-3.91-1.71-5-4.08a10.53,10.53,0,0,1-1-5.6c.55-5.18,5.16-12.06,14.05-20.52s15.87-12.35,20.74-11.74c4.6.58,6.59,3.21,6,7.86-.16,1.2-1.17,3.16-1.28,4.56,0,.2.89.51,2.5.72s7.7-1.46,7.71-1.46S506.5,63.13,505.24,65C505.17,65.07,505.27,65.72,505.22,66.15Zm-7.86-7.82c-1.33-.94-7.81,2.54-14.16,8.79s-9.67,11-10,14.33.51,5,2.62,5.27c3.78.42,8.94-2.39,15.59-8.4s11.15-12.1,10.6-13.37C501.66,64.21,499,59.48,497.36,58.33Z"/><path class="cls-1" d="M540.88,99.92a19.17,19.17,0,0,1-2.83-.31A7.17,7.17,0,0,1,534,97.28a5.28,5.28,0,0,1-1.52-4.64,20.25,20.25,0,0,1,1.87-5.71c1-2,2.13-4.68,2.13-4.68-.37-.27-20.52,14.62-26.2,13.85-3.58-.49-5.42-3.13-5-7.37,0-.33.08-.64.12-.9.49-3.7,8.9-14,8.9-14s-5.85,4.27-8.87,6.69a1.8,1.8,0,0,1-1.39.34c-.35,0-.5-.28-.44-.72a4.8,4.8,0,0,1,1.48-2C513.44,70.66,517.69,67,526.3,59.7c2.69-2.25,5.26-3.19,7.69-2.83s3.52,1.31,3.28,2.86a2.29,2.29,0,0,1-1.06,1.55,107.78,107.78,0,0,0-15.73,13.89c-6.4,6.63-9.79,11.74-10.26,15.27q-.31,2.32,1.26,2.54c3.68.5,9.51-2.46,17.59-8.42,2.77-2,8.18-6.66,16.23-13.79s13.21-10.47,15.36-10.11q4.84.8,4.23,4.4c-.14.86-2.56,3-6.86,6.51a166.2,166.2,0,0,0-13.88,12.59c-3.23,3.31-5,6.13-5.37,8.45s.12,3.58,1.43,3.78a5.51,5.51,0,0,0,2.18-.19c6.4-1.64,14.68-6.44,24.72-14.4a2.25,2.25,0,0,1,1.74-.62.73.73,0,0,1,.65,1,3,3,0,0,1-1.25,1.7,148.19,148.19,0,0,1-15.49,10.65C547,98,543,99.84,540.88,99.92Z"/><path class="cls-1" d="M584.35,104.6a19,19,0,0,1-9.73.47q-5.55-1-7.86-5.09c-1.55-2.74-3.06-12.27-3.09-12.29-.28-.13-3.07,1.85-3.69,1.75-.44-.07-.61-.41-.51-1a2.29,2.29,0,0,1,.92-1.43c3.46-2.68,9.29-7.23,17.48-12.56,7.79-4.85,11.72-7.25,19.64-12,5.66-3.43,9-5,9.87-4.86q4.31.84,3.7,3.91a4.66,4.66,0,0,1-1.87,2.75q-1.57,1.22-2.33,1.93c-.51.47-1.12.92-1.58,1.35-2.12,2-4.81,7.46-8,15.41S590,99.14,590.19,99.48c.68,1.33,15.73-2.66,25.22-9.35a3.52,3.52,0,0,1,2.24-.87c.44.09.6.41.49,1a4,4,0,0,1-1.65,2c-6.18,4.74-11.87,7.92-16.63,9.27A43.59,43.59,0,0,1,589,102.7ZM569.18,87.19a9.45,9.45,0,0,0,1.72,7.63A9.68,9.68,0,0,0,577,98.76a11,11,0,0,0,5.89-.38c1.76-.69,4.38-4.22,7.39-10.8a110.34,110.34,0,0,0,6.59-17.7l1.36-4.25A119.8,119.8,0,0,0,580.07,76.3c-6.54,4.55-10,7.82-10.51,9.51A11.29,11.29,0,0,0,569.18,87.19Z"/></svg>